<?xml version="1.0" encoding="utf-8"?>
<!-- Generator: Adobe Illustrator 15.0.2, SVG Export Plug-In . SVG Version: 6.00 Build 0)  -->
<!DOCTYPE svg PUBLIC "-//W3C//DTD SVG 1.1//EN" "http://www.w3.org/Graphics/SVG/1.1/DTD/svg11.dtd">
<svg version="1.1" id="Layer_1" xmlns="http://www.w3.org/2000/svg" xmlns:xlink="http://www.w3.org/1999/xlink" x="0px" y="0px"
	 width="500px" height="500px" viewBox="0 0 500 500" enable-background="new 0 0 500 500" xml:space="preserve">
<circle cx="250" cy="250" r="225"/>
<path id="Mask" fill="#FFFFFF" stroke="#000000" stroke-width="10" stroke-miterlimit="10" d="M305.179,195.618l-134.512-73.477
	c-7.009,0-12.69,5.665-12.69,12.661v230.396c0,7,5.682,12.66,12.69,12.66c0,0,73.759-40.538,134.512-73.786V195.618z"/>
<path id="Mask_1_" fill="#FFFFFF" stroke="#000000" stroke-width="10" stroke-miterlimit="10" d="M332.483,210.535l51.385,28.073
	c22.85,12.307,0,22.778,0,22.778c0-0.706-213.202,116.472-213.202,116.472c-0.412,0-0.816-0.018-1.22-0.059L332.483,210.535z"/>
<path id="Mask_2_" fill="#FFFFFF" stroke="#000000" stroke-width="10" stroke-miterlimit="10" d="M170.675,122.146l213.193,116.463
	c22.85,12.307,0,22.778,0,22.778c0-0.216-21.451,11.421-50.752,27.419L170.675,122.146z"/>
<path id="Mask_3_" fill="#FFFFFF" stroke="#000000" stroke-width="10" stroke-miterlimit="10" d="M332.749,210.685l51.119,27.924
	c22.85,12.307,0,22.778,0,22.778c0-0.216-21.451,11.421-50.752,27.419l-38.258-39.243L332.749,210.685z"/>
</svg>
